
<svg width="121" height="121" viewBox="0 0 121 121" fill="none" xmlns="http://www.w3.org/2000/svg">
<path d="M120.924 117.869L117.899 105.769C116.464 99.8992 112.112 95.1786 106.379 93.2709L84.1951 85.8798C78.7853 83.6261 76.31 74.9141 75.7754 71.6067C79.8975 68.179 82.5498 63.3021 83.1867 57.9791C83.0957 57.0699 83.3103 56.1563 83.7967 55.3825C84.5827 55.1857 85.2262 54.6228 85.5259 53.8701C86.9774 50.3554 87.8884 46.6412 88.2283 42.8541C88.229 42.6482 88.2037 42.4433 88.1527 42.2441C87.7915 40.7725 86.9264 39.4739 85.7074 38.5737V25.2082C85.7074 17.0861 83.2269 13.7536 80.6152 11.8226C80.1166 7.91038 75.9269 0 60.4994 0C46.812 0.551117 35.8421 11.521 35.291 25.2084V38.5739C34.072 39.4741 33.2068 40.7727 32.8457 42.2444C32.7947 42.4436 32.7694 42.6487 32.7701 42.8543C33.1095 46.6434 34.0205 50.3592 35.4725 53.8755C35.6909 54.588 36.2635 55.1361 36.985 55.3225C37.2674 55.4636 37.7968 56.1948 37.7968 57.9796C38.4375 63.3177 41.1052 68.2057 45.2485 71.6325C44.7191 74.9347 42.2587 83.6417 37.0004 85.8398L14.6203 93.2711C8.89103 95.1786 4.5426 99.8945 3.10525 105.759L0.0802487 117.859C-0.262191 119.209 0.554087 120.581 1.90352 120.923C2.10511 120.974 2.31237 121 2.52034 121H118.479C119.871 121 120.999 119.871 120.999 118.479C120.999 118.273 120.973 118.068 120.924 117.869Z" fill="#6F92BB"/>
</svg>
