<?xml version="1.0" standalone="no"?>
<!DOCTYPE svg PUBLIC "-//W3C//DTD SVG 20010904//EN"
 "http://www.w3.org/TR/2001/REC-SVG-20010904/DTD/svg10.dtd">
<svg version="1.0" xmlns="http://www.w3.org/2000/svg"
 width="319.000000pt" height="76.000000pt" viewBox="0 0 319.000000 76.000000"
 preserveAspectRatio="xMidYMid meet">
<metadata>
Created by potrace 1.16, written by Peter Selinger 2001-2019
</metadata>
<g transform="translate(0.000000,76.000000) scale(0.075414,-0.066087)"
fill="#000000" stroke="none">
<path d="M173 975 c-105 -64 -114 -247 -13 -300 14 -8 60 -30 102 -50 86 -39
108 -67 108 -131 0 -50 -53 -104 -103 -104 -42 0 -84 31 -104 77 -14 36 -27
37 -79 9 -17 -9 -19 -16 -13 -41 20 -72 116 -145 192 -145 71 0 139 46 178
122 24 47 26 146 3 194 -23 48 -83 97 -155 125 -78 31 -109 59 -109 99 0 76
93 106 135 44 l21 -31 37 19 c20 10 37 22 37 26 0 22 -45 74 -79 92 -54 27
-107 25 -158 -5z"/>
<path d="M2980 650 l0 -350 45 0 45 0 0 95 c0 73 3 95 13 95 8 0 44 -43 81
-95 l68 -95 53 0 54 0 -84 116 -84 117 77 91 c105 123 103 116 38 116 l-56 0
-62 -85 c-96 -132 -98 -129 -98 130 l0 215 -45 0 -45 0 0 -350z"/>
<path d="M3840 795 c0 -52 -1 -55 -25 -55 -23 0 -25 -4 -25 -44 0 -39 3 -45
23 -48 21 -3 22 -8 27 -118 5 -121 11 -138 57 -182 26 -25 90 -58 113 -58 5 0
10 20 10 45 0 39 -3 45 -24 51 -13 3 -35 17 -48 31 -20 22 -23 36 -26 129 l-4
104 51 0 51 0 0 45 0 45 -50 0 -50 0 0 55 0 55 -40 0 -40 0 0 -55z"/>
<path d="M1015 722 c-47 -22 -79 -55 -94 -95 -6 -16 -11 -96 -11 -178 l0 -149
45 0 45 0 0 144 c0 136 1 147 23 171 14 17 36 28 63 32 36 5 46 1 75 -25 l34
-30 3 -146 3 -146 40 0 39 0 0 163 c0 141 -2 166 -19 193 -44 72 -165 104
-246 66z"/>
<path d="M1500 724 c-68 -29 -121 -98 -135 -177 -23 -121 88 -256 211 -257 43
0 142 43 151 66 3 8 -6 27 -19 43 -24 28 -25 28 -49 10 -53 -41 -123 -36 -170
11 -57 56 -48 60 142 60 l172 0 -6 49 c-18 155 -166 252 -297 195z"/>
<path d="M1983 714 c-42 -24 -43 -25 -43 -5 0 18 -6 21 -40 21 l-40 0 0 -215
0 -215 39 0 39 0 4 146 3 146 33 29 c18 16 41 29 52 29 17 0 20 7 20 45 0 53
-8 55 -67 19z"/>
<path d="M2203 715 c-54 -27 -97 -78 -113 -136 -24 -82 -5 -154 58 -219 66
-67 147 -87 235 -56 l37 14 0 -32 c-1 -94 -82 -163 -180 -154 -43 4 -63 13
-115 52 -8 6 -24 1 -45 -14 l-33 -24 46 -41 c123 -112 317 -72 393 81 17 34
19 61 19 214 0 160 -2 178 -22 215 -61 114 -172 153 -280 100z m163 -84 c34
-21 64 -75 64 -116 0 -120 -147 -179 -227 -91 -29 31 -33 43 -33 90 0 44 5 60
27 86 14 18 36 36 47 40 36 15 90 11 122 -9z"/>
<path d="M542 522 l80 -209 -47 -119 c-26 -65 -49 -125 -52 -132 -4 -10 6 -12
42 -10 l48 3 128 319 c71 175 131 327 135 338 5 17 1 19 -41 16 l-47 -3 -56
-137 c-31 -76 -59 -138 -62 -138 -3 0 -29 63 -59 140 l-54 140 -47 0 -47 0 79
-208z"/>
<path d="M2612 522 l80 -209 -47 -119 c-26 -65 -49 -125 -52 -132 -4 -10 6
-12 42 -10 l48 3 128 319 c71 175 131 327 135 338 5 17 1 19 -41 16 l-47 -3
-56 -137 c-31 -76 -59 -138 -62 -138 -3 0 -29 63 -59 140 l-54 140 -47 0 -47
0 79 -208z"/>
<path d="M3370 581 c0 -82 5 -162 11 -178 45 -120 223 -150 322 -56 39 38 47
79 47 241 l0 142 -45 0 -45 0 0 -135 c0 -152 -9 -184 -59 -205 -42 -17 -95 -5
-121 27 -18 23 -20 40 -20 169 l0 144 -45 0 -45 0 0 -149z"/>
</g>
</svg>
